<svg width="41" height="40" viewBox="0 0 41 40" fill="none" xmlns="http://www.w3.org/2000/svg">
<g id="Facebook" filter="url(#filter0_d_1820_6888)">
<g id="Facebook_2">
<path id="XMLID 21" d="M32.0021 15.9992C32.0021 9.37225 26.6299 4 20.002 4C13.3744 4 8.00195 9.37225 8.00195 15.9992C8.00195 22.6262 13.3744 28 20.002 28C26.63 28 32.0021 22.6262 32.0021 15.9992Z" fill="#395196"/>
<path id="XMLID 19" d="M21.0595 13.158V12.0213C21.0595 11.4677 21.429 11.3383 21.6876 11.3383C21.9472 11.3383 23.283 11.3383 23.283 11.3383V8.90422L21.0866 8.89453C18.6486 8.89453 18.095 10.711 18.095 11.8739V13.158H16.6855V16.0014H18.1072C18.1072 19.2233 18.1072 23.1082 18.1072 23.1082H20.9497C20.9497 23.1082 20.9497 19.1837 20.9497 16.0014H23.0595L23.319 13.158H21.0595V13.158Z" fill="white"/>
</g>
</g>
<defs>
<filter id="filter0_d_1820_6888" x="0.00195312" y="0" width="40" height="40" filterUnits="userSpaceOnUse" color-interpolation-filters="sRGB">
<feFlood flood-opacity="0" result="BackgroundImageFix"/>
<feColorMatrix in="SourceAlpha" type="matrix" values="0 0 0 0 0 0 0 0 0 0 0 0 0 0 0 0 0 0 127 0" result="hardAlpha"/>
<feOffset dy="4"/>
<feGaussianBlur stdDeviation="4"/>
<feColorMatrix type="matrix" values="0 0 0 0 0 0 0 0 0 0.0627451 0 0 0 0 0.160784 0 0 0 0.1 0"/>
<feBlend mode="normal" in2="BackgroundImageFix" result="effect1_dropShadow_1820_6888"/>
<feBlend mode="normal" in="SourceGraphic" in2="effect1_dropShadow_1820_6888" result="shape"/>
</filter>
</defs>
</svg>
