<svg width="41" height="40" viewBox="0 0 41 40" fill="none" xmlns="http://www.w3.org/2000/svg">
<g id="Gmail" filter="url(#filter0_d_1820_6880)">
<rect x="8.00195" y="4" width="24" height="24" rx="12" fill="white"/>
<g id="Gmail_2">
<mask id="mask0_1820_6880" style="mask-type:alpha" maskUnits="userSpaceOnUse" x="12" y="8" width="17" height="16">
<path id="Union" d="M20.002 24C24.4202 24 28.002 20.4183 28.002 16C28.002 15.4116 27.9384 14.838 27.8179 14.2857H20.002V17.6H24.4074C23.7535 19.4 22.0279 20.6857 20.002 20.6857C17.4141 20.6857 15.3162 18.5878 15.3162 16C15.3162 13.4122 17.4141 11.3143 20.002 11.3143C21.321 11.3143 22.5128 11.8593 23.3644 12.7365L25.6965 10.3811C24.2459 8.91109 22.2303 8 20.002 8C15.5837 8 12.002 11.5817 12.002 16C12.002 20.4183 15.5837 24 20.002 24Z" fill="#C4C4C4"/>
</mask>
<g mask="url(#mask0_1820_6880)">
<g id="Gmail_3">
<path id="Rectangle 527" d="M6.85938 16.0312L12.0022 11.6593L17.7165 16.1164L12.0022 20.345L6.85938 16.0312Z" fill="#FEBD01"/>
<path id="Rectangle 528" d="M12.002 11.6602L18.4591 5.20301L25.4305 7.7173L28.4591 13.0887L19.8305 13.4316L17.7162 16.1173L12.002 11.6602Z" fill="#FF4131"/>
<path id="Vector 9" d="M19.6602 13.9434L28.9173 13.7148L28.803 17.8291L26.5173 22.7434L21.8316 19.0863L19.6602 18.0577V13.9434Z" fill="#0286F7"/>
<path id="Vector 10" d="M12.002 20.3458L17.7162 16.1172L18.3448 18.9743L21.8305 19.0886L26.5162 22.7458L21.7734 24.8029L15.8877 24.46L12.002 20.3458Z" fill="#01A94D"/>
</g>
</g>
</g>
</g>
<defs>
<filter id="filter0_d_1820_6880" x="0.00195312" y="0" width="40" height="40" filterUnits="userSpaceOnUse" color-interpolation-filters="sRGB">
<feFlood flood-opacity="0" result="BackgroundImageFix"/>
<feColorMatrix in="SourceAlpha" type="matrix" values="0 0 0 0 0 0 0 0 0 0 0 0 0 0 0 0 0 0 127 0" result="hardAlpha"/>
<feOffset dy="4"/>
<feGaussianBlur stdDeviation="4"/>
<feColorMatrix type="matrix" values="0 0 0 0 0 0 0 0 0 0.0627451 0 0 0 0 0.160784 0 0 0 0.1 0"/>
<feBlend mode="normal" in2="BackgroundImageFix" result="effect1_dropShadow_1820_6880"/>
<feBlend mode="normal" in="SourceGraphic" in2="effect1_dropShadow_1820_6880" result="shape"/>
</filter>
</defs>
</svg>
