<svg width="40" height="40" viewBox="0 0 40 40" fill="none" xmlns="http://www.w3.org/2000/svg">
<g id="Linkedin" filter="url(#filter0_d_1820_6900)">
<g id="Linked in">
<path id="XMLID 108" d="M31.9998 16C31.9998 9.37234 26.6273 4 20.0007 4C13.372 4 8 9.37218 8 16C8 22.6268 13.3722 28 20.0007 28C26.6275 28 31.9998 22.6268 31.9998 16Z" fill="#3D83D9"/>
<g id="Group">
<path id="Vector" d="M17.0649 13.0703H14.2871V21.0091H17.0649V13.0703Z" fill="white"/>
<path id="Vector_2" d="M15.6761 9.10156C14.806 9.10156 14.1249 9.90117 14.321 10.8019C14.435 11.3251 14.8618 11.7457 15.3869 11.8511C16.2822 12.031 17.0649 11.3532 17.0649 10.4906C17.0649 9.7247 16.4443 9.10156 15.6761 9.10156Z" fill="white"/>
<path id="Vector_3" d="M26.1947 15.5091C26.0079 14.0128 25.2594 13.0703 23.2368 13.0703C21.8012 13.0703 21.2303 13.2942 20.9011 13.9209V13.0703H18.6523V21.0091H20.9666V16.8535C20.9666 15.8161 21.1631 15.0325 22.4459 15.0325C23.7102 15.0325 23.8118 15.9969 23.8118 16.9208V21.0093H26.1949C26.1947 21.0093 26.2389 15.8588 26.1947 15.5091Z" fill="white"/>
</g>
</g>
</g>
<defs>
<filter id="filter0_d_1820_6900" x="0" y="0" width="40" height="40" filterUnits="userSpaceOnUse" color-interpolation-filters="sRGB">
<feFlood flood-opacity="0" result="BackgroundImageFix"/>
<feColorMatrix in="SourceAlpha" type="matrix" values="0 0 0 0 0 0 0 0 0 0 0 0 0 0 0 0 0 0 127 0" result="hardAlpha"/>
<feOffset dy="4"/>
<feGaussianBlur stdDeviation="4"/>
<feColorMatrix type="matrix" values="0 0 0 0 0 0 0 0 0 0.0627451 0 0 0 0 0.160784 0 0 0 0.1 0"/>
<feBlend mode="normal" in2="BackgroundImageFix" result="effect1_dropShadow_1820_6900"/>
<feBlend mode="normal" in="SourceGraphic" in2="effect1_dropShadow_1820_6900" result="shape"/>
</filter>
</defs>
</svg>
